<svg width="198" height="69" viewBox="0 0 198 69" fill="none" xmlns="http://www.w3.org/2000/svg">
<g id="Frame 12">
<g id="account_balance_wallet">
<mask id="mask0_139_1338" style="mask-type:alpha" maskUnits="userSpaceOnUse" x="144" y="22" width="24" height="25">
<rect id="Bounding box" x="144" y="22.6953" width="23.6408" height="23.6408" fill="#D9D9D9"/>
</mask>
<g mask="url(#mask0_139_1338)">
<path id="account_balance_wallet_2" d="M159.761 35.9932C160.187 35.9932 160.54 35.8537 160.819 35.5746C161.099 35.2955 161.238 34.9425 161.238 34.5157C161.238 34.0888 161.099 33.7359 160.819 33.4568C160.54 33.1777 160.187 33.0381 159.761 33.0381C159.334 33.0381 158.981 33.1777 158.702 33.4568C158.423 33.7359 158.283 34.0888 158.283 34.5157C158.283 34.9425 158.423 35.2955 158.702 35.5746C158.981 35.8537 159.334 35.9932 159.761 35.9932ZM156.805 39.4409C156.264 39.4409 155.8 39.248 155.414 38.8622C155.028 38.4763 154.835 38.0126 154.835 37.4708V31.5606C154.835 31.0188 155.028 30.555 155.414 30.1692C155.8 29.7834 156.264 29.5905 156.805 29.5905H163.701C164.242 29.5905 164.706 29.7834 165.092 30.1692C165.478 30.555 165.671 31.0188 165.671 31.5606V37.4708C165.671 38.0126 165.478 38.4763 165.092 38.8622C164.706 39.248 164.242 39.4409 163.701 39.4409H156.805ZM148.925 43.381C148.383 43.381 147.92 43.1881 147.534 42.8023C147.148 42.4165 146.955 41.9527 146.955 41.4109V27.6205C146.955 27.0787 147.148 26.6149 147.534 26.2291C147.92 25.8433 148.383 25.6504 148.925 25.6504H162.716C163.257 25.6504 163.721 25.8433 164.107 26.2291C164.493 26.6149 164.686 27.0787 164.686 27.6205H156.805C155.64 27.6205 154.692 27.9857 153.961 28.7163C153.231 29.4469 152.865 30.395 152.865 31.5606V37.4708C152.865 38.6364 153.231 39.5845 153.961 40.3151C154.692 41.0456 155.64 41.4109 156.805 41.4109H164.686C164.686 41.9527 164.493 42.4165 164.107 42.8023C163.721 43.1881 163.257 43.381 162.716 43.381H148.925Z" fill="white"/>
</g>
</g>
<rect x="0.472816" y="0.472816" width="196.692" height="67.1399" rx="7.52718" stroke="white" stroke-width="0.945632"/>
</g>
</svg>
