<svg width="97" height="95" viewBox="0 0 97 95" fill="none" xmlns="http://www.w3.org/2000/svg">
<g id="Logo 3">
<path id="Vector" d="M8.30694 87.1851C14.7602 87.1851 21.2135 87.1851 27.3442 87.1851C27.3442 89.7582 27.3442 92.0097 27.3442 94.5829C18.6322 94.5829 9.92027 94.5829 0.562988 94.5829C0.562988 85.8985 0.562988 76.8925 0.562988 67.8865C3.14431 67.8865 5.40296 67.8865 7.98428 67.8865C8.30695 74.641 8.30694 80.7522 8.30694 87.1851Z" fill="#040404"/>
<path id="Vector_2" d="M69.2905 0.0195312C78.3251 0.0195312 87.0371 0.0195312 96.0717 0.0195312C96.0717 9.02555 96.0717 17.7099 96.0717 26.7159C93.8131 26.7159 91.5544 26.7159 88.6504 26.7159C88.6504 20.6047 88.6504 14.1718 88.6504 7.73898C81.8745 7.73898 75.7438 7.73898 69.2905 7.73898C69.2905 4.84419 69.2905 2.59268 69.2905 0.0195312Z" fill="#040404"/>
<path id="Vector_3" d="M18.3098 18.3531C18.3098 26.7158 18.3098 34.4353 18.3098 42.1547C16.0511 42.4764 13.7925 43.1197 13.7925 39.5816C13.7925 31.2189 13.7925 22.5345 13.7925 13.8501C23.4724 13.8501 33.475 13.8501 43.4776 13.8501C43.4776 15.1367 43.4776 16.4232 43.4776 18.0315C35.0884 18.3531 27.0217 18.3531 18.3098 18.3531Z" fill="#040404"/>
<path id="Vector_4" d="M53.48 13.8501C63.4826 13.8501 73.1625 13.8501 83.1651 13.8501C83.1651 22.8561 83.1651 31.5405 83.1651 40.2249C83.1651 41.1898 80.9065 41.8331 79.9385 42.798C79.6158 42.4764 79.2932 42.1547 78.9705 41.8331C78.9705 34.1136 78.9705 26.3942 78.9705 18.3531C70.5812 18.3531 62.1919 18.3531 53.8026 18.3531C53.48 16.7449 53.48 15.4583 53.48 13.8501Z" fill="#040404"/>
<path id="Vector_5" d="M78.648 76.2491C78.648 69.8162 78.648 63.705 78.648 57.5937C78.648 55.9855 78.0027 54.0557 80.9067 54.0557C83.488 54.0557 83.488 55.6639 83.488 57.2721C83.488 64.9915 83.488 73.0326 83.488 81.0737C77.0347 81.0737 70.2587 81.0737 63.8054 81.0737C61.2241 81.0737 58.9655 81.3954 56.3842 81.0737C55.4162 81.0737 53.8028 80.1088 53.4802 79.1439C52.8348 77.214 54.4482 76.5707 56.0615 76.5707C62.5148 76.5707 69.2908 76.5707 75.7441 76.5707C76.712 76.5707 77.3574 76.5707 78.648 76.2491Z" fill="#040404"/>
<path id="Vector_6" d="M43.155 81.3953C33.1524 81.3953 23.7951 81.3953 13.7925 81.3953C13.7925 77.8573 13.7925 74.6408 13.7925 71.1028C13.7925 66.5997 13.7925 62.4184 13.7925 57.9154C13.7925 54.0556 14.1151 53.734 18.6325 55.0206C18.6325 62.0967 18.6325 69.1729 18.6325 76.8923C26.0537 76.8923 33.1524 76.8923 40.251 76.8923C43.8003 76.8923 43.8003 76.8923 43.155 81.3953Z" fill="#040404"/>
<path id="Vector_7" d="M38.9602 59.2019C35.7336 59.2019 32.8296 59.2019 29.6029 59.2019C29.6029 57.5936 29.6029 56.3071 29.2803 54.3772C34.1202 54.3772 38.6376 54.3772 43.1549 54.3772C43.1549 60.1668 43.1549 65.9564 43.1549 71.4243C43.1549 72.0676 40.8962 72.7109 38.6376 73.9975C38.9602 68.5295 38.9602 64.0265 38.9602 59.2019Z" fill="#040404"/>
<path id="Vector_8" d="M22.5039 42.1549C22.5039 35.4004 22.5039 29.2892 22.5039 23.178C27.0212 23.178 31.5385 23.178 36.0558 23.178C36.0558 24.7862 36.0558 26.0728 36.0558 27.681C33.1518 27.681 30.2479 28.0026 27.0212 28.0026C27.0212 32.5056 27.0212 37.0087 27.0212 41.8333C25.4079 42.1549 24.4399 42.1549 22.5039 42.1549Z" fill="#040404"/>
<path id="Vector_9" d="M74.4533 23.4995C74.4533 29.6107 74.4533 35.722 74.4533 41.8332C72.84 41.8332 71.5493 41.8332 69.936 41.8332C69.936 37.3302 69.936 32.8272 69.936 28.0025C66.7093 28.0025 63.8054 28.0025 60.9014 28.0025C60.9014 26.3943 60.9014 25.1077 60.9014 23.4995C65.4187 23.4995 69.6133 23.4995 74.4533 23.4995Z" fill="#040404"/>
<path id="Vector_10" d="M53.1572 54.0557C57.3519 54.0557 60.9012 54.0557 64.7732 54.0557C65.4185 54.0557 66.7091 55.6639 66.7091 56.3072C66.7091 56.9505 65.4185 58.5587 64.7732 58.5587C62.5145 58.8803 60.5785 58.5587 57.9972 58.5587C57.9972 63.3833 57.9972 67.8863 57.9972 72.3894C54.7706 73.3543 53.1572 73.0326 53.1572 69.4946C53.4799 64.6699 53.1572 59.5236 53.1572 54.0557Z" fill="#040404"/>
<path id="Vector_11" d="M29.603 42.1548C29.603 40.5466 29.603 39.5816 29.603 37.9734C32.507 37.9734 35.411 37.9734 38.6376 37.9734C38.6376 32.8271 38.6376 28.3241 38.6376 23.8211C42.187 22.5345 43.4776 23.1778 43.4776 26.7159C43.4776 30.8973 43.4776 35.0786 43.8003 38.9384C44.1229 41.5115 43.155 42.7981 40.251 42.4764C37.0243 42.4764 33.7977 42.4764 29.603 42.1548Z" fill="#040404"/>
<path id="Vector_12" d="M57.9976 23.4996C57.9976 28.3242 57.9976 32.8273 57.9976 37.6519C61.2242 37.6519 63.8056 37.6519 67.0322 37.6519C67.0322 39.2601 67.0322 40.5467 67.0322 42.1549C63.1602 42.4766 59.2883 42.7982 55.4163 42.4766C54.4483 42.4766 53.1576 40.8683 52.835 40.2251C52.835 35.4004 52.835 30.5758 53.1576 25.7511C53.4803 22.5347 55.4163 23.1779 57.9976 23.4996Z" fill="#040404"/>
<path id="Vector_13" d="M21.8589 73.6759C21.8589 66.9214 21.8589 60.8102 21.8589 54.3773C23.1495 54.3773 24.4402 54.3773 26.0535 54.0557C26.0535 58.8803 26.0535 63.3833 26.0535 68.5296C29.2802 68.5296 32.1842 68.5296 35.0881 68.5296C35.0881 70.1378 35.0881 71.4244 35.0881 73.0326C30.8935 73.3543 26.6989 73.3543 21.8589 73.6759Z" fill="#040404"/>
<path id="Vector_14" d="M74.7757 73.3542C70.9038 73.3542 67.6771 73.6758 64.1278 73.0325C63.1598 73.0325 62.5145 70.781 61.8691 69.8161C62.1918 69.4945 62.5145 69.1728 62.8371 68.8512C65.0958 68.8512 67.6771 68.8512 70.5811 68.8512C70.5811 64.0265 70.5811 59.5235 70.5811 54.6988C72.1944 54.6988 73.4851 54.3772 75.0984 54.3772C74.7757 60.8101 74.7757 66.9213 74.7757 73.3542Z" fill="#040404"/>
</g>
</svg>
