<svg width="275" height="66" viewBox="0 0 275 66" fill="none" xmlns="http://www.w3.org/2000/svg">
<path d="M92.8825 28.5562V10.6949H96.6588V18.0644H104.325V10.6949H108.092V28.5562H104.325V21.1779H96.6588V28.5562H92.8825ZM117.241 28.8178C115.863 28.8178 114.677 28.5387 113.683 27.9805C112.694 27.4166 111.933 26.62 111.398 25.5909C110.863 24.556 110.596 23.3321 110.596 21.9192C110.596 20.5412 110.863 19.3319 111.398 18.2911C111.933 17.2504 112.686 16.4393 113.657 15.8579C114.633 15.2765 115.779 14.9858 117.093 14.9858C117.977 14.9858 118.799 15.1282 119.561 15.4131C120.329 15.6922 120.997 16.1137 121.567 16.6777C122.143 17.2417 122.59 17.951 122.91 18.8057C123.23 19.6546 123.39 20.6488 123.39 21.7884V22.8088H112.078V20.5064H119.892C119.892 19.9714 119.776 19.4976 119.544 19.0848C119.311 18.672 118.988 18.3493 118.576 18.1167C118.169 17.8783 117.695 17.7591 117.154 17.7591C116.59 17.7591 116.09 17.89 115.654 18.1516C115.224 18.4074 114.886 18.7534 114.642 19.1894C114.398 19.6197 114.273 20.0994 114.267 20.6285V22.8175C114.267 23.4803 114.389 24.053 114.633 24.5356C114.884 25.0182 115.235 25.3903 115.689 25.6519C116.142 25.9136 116.68 26.0444 117.302 26.0444C117.715 26.0444 118.093 25.9863 118.436 25.87C118.779 25.7537 119.073 25.5793 119.317 25.3467C119.561 25.1141 119.747 24.8292 119.875 24.492L123.311 24.7188C123.137 25.5444 122.779 26.2653 122.239 26.8817C121.704 27.4921 121.012 27.9689 120.163 28.312C119.32 28.6492 118.346 28.8178 117.241 28.8178ZM129.53 10.6949V28.5562H125.814V10.6949H129.53ZM144.995 15.1602L140.311 28.5562H136.125L131.442 15.1602H135.366L138.148 24.7449H138.288L141.061 15.1602H144.995ZM152.569 28.8178C151.191 28.8178 150.005 28.5387 149.011 27.9805C148.022 27.4166 147.261 26.62 146.726 25.5909C146.191 24.556 145.923 23.3321 145.923 21.9192C145.923 20.5412 146.191 19.3319 146.726 18.2911C147.261 17.2504 148.014 16.4393 148.985 15.8579C149.961 15.2765 151.107 14.9858 152.421 14.9858C153.305 14.9858 154.127 15.1282 154.889 15.4131C155.656 15.6922 156.325 16.1137 156.895 16.6777C157.471 17.2417 157.918 17.951 158.238 18.8057C158.558 19.6546 158.718 20.6488 158.718 21.7884V22.8088H147.406V20.5064H155.22C155.22 19.9714 155.104 19.4976 154.872 19.0848C154.639 18.672 154.316 18.3493 153.904 18.1167C153.497 17.8783 153.023 17.7591 152.482 17.7591C151.918 17.7591 151.418 17.89 150.982 18.1516C150.552 18.4074 150.214 18.7534 149.97 19.1894C149.726 19.6197 149.601 20.0994 149.595 20.6285V22.8175C149.595 23.4803 149.717 24.053 149.961 24.5356C150.211 25.0182 150.563 25.3903 151.017 25.6519C151.47 25.9136 152.008 26.0444 152.63 26.0444C153.043 26.0444 153.421 25.9863 153.764 25.87C154.107 25.7537 154.401 25.5793 154.645 25.3467C154.889 25.1141 155.075 24.8292 155.203 24.492L158.639 24.7188C158.465 25.5444 158.107 26.2653 157.566 26.8817C157.032 27.4921 156.34 27.9689 155.491 28.312C154.648 28.6492 153.674 28.8178 152.569 28.8178ZM168.268 15.1602V17.951H160.2V15.1602H168.268ZM162.032 11.9507H165.747V24.4397C165.747 24.7827 165.799 25.0502 165.904 25.242C166.009 25.4281 166.154 25.5589 166.34 25.6345C166.532 25.7101 166.753 25.7479 167.003 25.7479C167.177 25.7479 167.352 25.7333 167.526 25.7043C167.701 25.6694 167.834 25.6432 167.927 25.6258L168.512 28.3904C168.326 28.4486 168.064 28.5155 167.727 28.591C167.39 28.6724 166.98 28.7219 166.497 28.7393C165.602 28.7742 164.817 28.655 164.142 28.3817C163.474 28.1085 162.953 27.684 162.581 27.1084C162.209 26.5328 162.026 25.806 162.032 24.9281V11.9507ZM170.688 28.5562V15.1602H174.403V28.5562H170.688ZM172.554 13.4334C172.002 13.4334 171.528 13.2502 171.133 12.8839C170.743 12.5118 170.548 12.067 170.548 11.5495C170.548 11.0379 170.743 10.5989 171.133 10.2326C171.528 9.86051 172.002 9.67445 172.554 9.67445C173.106 9.67445 173.577 9.86051 173.967 10.2326C174.362 10.5989 174.56 11.0379 174.56 11.5495C174.56 12.067 174.362 12.5118 173.967 12.8839C173.577 13.2502 173.106 13.4334 172.554 13.4334ZM181.199 28.8091C180.344 28.8091 179.583 28.6608 178.914 28.3643C178.245 28.0619 177.716 27.6172 177.327 27.0299C176.943 26.4369 176.751 25.6985 176.751 24.8147C176.751 24.0705 176.888 23.4454 177.161 22.9396C177.434 22.4338 177.807 22.0268 178.277 21.7186C178.748 21.4105 179.283 21.1779 179.882 21.0209C180.487 20.8639 181.121 20.7535 181.783 20.6895C182.563 20.6081 183.19 20.5325 183.667 20.4628C184.144 20.3872 184.49 20.2767 184.705 20.1313C184.92 19.986 185.028 19.7709 185.028 19.486V19.4336C185.028 18.8813 184.853 18.4539 184.504 18.1516C184.161 17.8493 183.673 17.6981 183.039 17.6981C182.371 17.6981 181.839 17.8463 181.443 18.1429C181.048 18.4336 180.786 18.7999 180.658 19.2418L177.222 18.9627C177.397 18.1487 177.74 17.4452 178.251 16.8521C178.763 16.2533 179.423 15.7939 180.231 15.4741C181.045 15.1485 181.987 14.9858 183.057 14.9858C183.801 14.9858 184.513 15.073 185.193 15.2474C185.88 15.4218 186.487 15.6922 187.016 16.0585C187.551 16.4248 187.973 16.8957 188.281 17.4713C188.589 18.0411 188.743 18.7243 188.743 19.5208V28.5562H185.22V26.6985H185.115C184.9 27.1171 184.612 27.4863 184.252 27.8061C183.891 28.1201 183.458 28.3672 182.952 28.5474C182.446 28.7219 181.862 28.8091 181.199 28.8091ZM182.263 26.245C182.81 26.245 183.292 26.1374 183.711 25.9223C184.129 25.7014 184.458 25.4048 184.696 25.0327C184.935 24.6606 185.054 24.2391 185.054 23.7681V22.3466C184.938 22.4221 184.778 22.4919 184.574 22.5559C184.377 22.614 184.153 22.6692 183.903 22.7216C183.653 22.7681 183.403 22.8117 183.153 22.8524C182.903 22.8873 182.676 22.9193 182.472 22.9483C182.036 23.0123 181.656 23.114 181.33 23.2536C181.004 23.3931 180.751 23.5821 180.571 23.8205C180.391 24.053 180.301 24.3437 180.301 24.6926C180.301 25.1984 180.484 25.5851 180.85 25.8525C181.222 26.1142 181.693 26.245 182.263 26.245ZM201.156 10.6949V28.5562H197.379V10.6949H201.156ZM207.908 20.8116V28.5562H204.193V15.1602H207.734V17.5237H207.891C208.187 16.7446 208.684 16.1282 209.382 15.6747C210.08 15.2154 210.926 14.9858 211.92 14.9858C212.85 14.9858 213.661 15.1892 214.353 15.5962C215.045 16.0032 215.583 16.5847 215.967 17.3405C216.35 18.0905 216.542 18.9859 216.542 20.0267V28.5562H212.827V20.6895C212.833 19.8697 212.624 19.2301 212.199 18.7708C211.775 18.3057 211.19 18.0731 210.446 18.0731C209.946 18.0731 209.504 18.1807 209.12 18.3958C208.743 18.6109 208.446 18.9249 208.231 19.3377C208.022 19.7447 207.914 20.236 207.908 20.8116ZM231.48 15.1602L226.796 28.5562H222.61L217.927 15.1602H221.851L224.634 24.7449H224.773L227.546 15.1602H231.48ZM239.054 28.8178C237.676 28.8178 236.49 28.5387 235.496 27.9805C234.508 27.4166 233.746 26.62 233.211 25.5909C232.676 24.556 232.409 23.3321 232.409 21.9192C232.409 20.5412 232.676 19.3319 233.211 18.2911C233.746 17.2504 234.499 16.4393 235.47 15.8579C236.447 15.2765 237.592 14.9858 238.906 14.9858C239.79 14.9858 240.612 15.1282 241.374 15.4131C242.142 15.6922 242.81 16.1137 243.38 16.6777C243.956 17.2417 244.403 17.951 244.723 18.8057C245.043 19.6546 245.203 20.6488 245.203 21.7884V22.8088H233.891V20.5064H241.706C241.706 19.9714 241.589 19.4976 241.357 19.0848C241.124 18.672 240.801 18.3493 240.389 18.1167C239.982 17.8783 239.508 17.7591 238.967 17.7591C238.403 17.7591 237.903 17.89 237.467 18.1516C237.037 18.4074 236.7 18.7534 236.455 19.1894C236.211 19.6197 236.086 20.0994 236.08 20.6285V22.8175C236.08 23.4803 236.202 24.053 236.447 24.5356C236.697 25.0182 237.048 25.3903 237.502 25.6519C237.955 25.9136 238.493 26.0444 239.115 26.0444C239.528 26.0444 239.906 25.9863 240.249 25.87C240.592 25.7537 240.886 25.5793 241.13 25.3467C241.374 25.1141 241.56 24.8292 241.688 24.492L245.124 24.7188C244.95 25.5444 244.592 26.2653 244.052 26.8817C243.517 27.4921 242.825 27.9689 241.976 28.312C241.133 28.6492 240.159 28.8178 239.054 28.8178ZM258.773 18.9801L255.372 19.1894C255.314 18.8987 255.189 18.6371 254.997 18.4045C254.805 18.1661 254.552 17.9772 254.238 17.8376C253.93 17.6923 253.561 17.6196 253.131 17.6196C252.555 17.6196 252.069 17.7417 251.674 17.9859C251.279 18.2243 251.081 18.5441 251.081 18.9452C251.081 19.265 251.209 19.5354 251.465 19.7563C251.721 19.9773 252.16 20.1546 252.782 20.2883L255.206 20.7767C256.509 21.0442 257.48 21.4744 258.119 22.0675C258.759 22.6605 259.078 23.4396 259.078 24.4048C259.078 25.2827 258.82 26.0531 258.302 26.716C257.791 27.3788 257.087 27.8962 256.192 28.2683C255.302 28.6346 254.276 28.8178 253.113 28.8178C251.34 28.8178 249.927 28.4486 248.875 27.7102C247.828 26.966 247.215 25.9543 247.034 24.6752L250.689 24.4833C250.799 25.024 251.066 25.4368 251.491 25.7217C251.915 26.0008 252.459 26.1403 253.122 26.1403C253.773 26.1403 254.296 26.0153 254.692 25.7653C255.093 25.5095 255.296 25.181 255.302 24.7798C255.296 24.4426 255.154 24.1664 254.875 23.9513C254.596 23.7303 254.165 23.5617 253.584 23.4454L251.264 22.9832C249.956 22.7216 248.982 22.2681 248.343 21.6227C247.709 20.9773 247.392 20.1546 247.392 19.1545C247.392 18.294 247.624 17.5527 248.09 16.9306C248.561 16.3085 249.22 15.8288 250.069 15.4916C250.924 15.1544 251.924 14.9858 253.069 14.9858C254.761 14.9858 256.093 15.3433 257.064 16.0585C258.041 16.7736 258.61 17.7475 258.773 18.9801ZM268.543 15.1602V17.951H260.476V15.1602H268.543ZM262.308 11.9507H266.023V24.4397C266.023 24.7827 266.075 25.0502 266.18 25.242C266.284 25.4281 266.43 25.5589 266.616 25.6345C266.808 25.7101 267.029 25.7479 267.279 25.7479C267.453 25.7479 267.628 25.7333 267.802 25.7043C267.976 25.6694 268.11 25.6432 268.203 25.6258L268.788 28.3904C268.601 28.4486 268.34 28.5155 268.003 28.591C267.665 28.6724 267.255 28.7219 266.773 28.7393C265.877 28.7742 265.093 28.655 264.418 28.3817C263.749 28.1085 263.229 27.684 262.857 27.1084C262.485 26.5328 262.302 25.806 262.308 24.9281V11.9507ZM98.5072 53.826C97.2361 53.826 96.1388 53.5981 95.2154 53.1424C94.2921 52.6867 93.5815 52.0692 93.0839 51.2897C92.5922 50.5042 92.3464 49.6288 92.3464 48.6635C92.3464 47.944 92.4903 47.3054 92.7781 46.7478C93.0659 46.1902 93.4676 45.6775 93.9833 45.2098C94.4989 44.7362 95.0985 44.2655 95.782 43.7978L99.3526 41.4504C99.8143 41.1566 100.153 40.8478 100.369 40.524C100.585 40.1942 100.693 39.8375 100.693 39.4537C100.693 39.088 100.546 38.7492 100.252 38.4374C99.9582 38.1257 99.5415 37.9728 99.0019 37.9788C98.6421 37.9788 98.3303 38.0597 98.0665 38.2216C97.8027 38.3775 97.5958 38.5843 97.4459 38.8422C97.302 39.094 97.2301 39.3758 97.2301 39.6876C97.2301 40.0713 97.338 40.4611 97.5538 40.8568C97.7697 41.2525 98.0575 41.6722 98.4173 42.1159C98.777 42.5536 99.1697 43.0273 99.5955 43.537L108.329 53.5562H104.335L97.0502 45.4437C96.5705 44.898 96.0908 44.3284 95.6112 43.7348C95.1375 43.1352 94.7418 42.4997 94.424 41.8281C94.1062 41.1506 93.9473 40.4161 93.9473 39.6246C93.9473 38.7312 94.1542 37.9278 94.5679 37.2143C94.9876 36.5008 95.5752 35.9371 96.3307 35.5234C97.0862 35.1037 97.9676 34.8939 98.9749 34.8939C99.9582 34.8939 100.807 35.0947 101.52 35.4964C102.24 35.8922 102.791 36.4198 103.175 37.0794C103.565 37.7329 103.76 38.4524 103.76 39.2379C103.76 40.1073 103.544 40.8958 103.112 41.6033C102.686 42.3048 102.087 42.9344 101.313 43.492L97.5538 46.1992C97.0442 46.5709 96.6664 46.9516 96.4206 47.3414C96.1808 47.7251 96.0609 48.0939 96.0609 48.4476C96.0609 48.8853 96.1688 49.2781 96.3846 49.6258C96.6005 49.9736 96.9063 50.2494 97.302 50.4533C97.6977 50.6511 98.1624 50.7501 98.6961 50.7501C99.3436 50.7501 99.9822 50.6032 100.612 50.3094C101.247 50.0096 101.823 49.5869 102.339 49.0412C102.86 48.4896 103.277 47.836 103.589 47.0806C103.901 46.3251 104.056 45.4886 104.056 44.5713H107.231C107.231 45.6985 107.108 46.7148 106.863 47.6202C106.617 48.5196 106.275 49.305 105.837 49.9766C105.4 50.6421 104.899 51.1878 104.335 51.6135C104.155 51.7274 103.981 51.8353 103.814 51.9373C103.646 52.0392 103.472 52.1471 103.292 52.261C102.608 52.8127 101.844 53.2114 100.998 53.4572C100.159 53.7031 99.3286 53.826 98.5072 53.826ZM115.157 38.3475V35.1367H130.285V38.3475H124.646V53.5562H120.796V38.3475H115.157ZM131.27 53.5562V39.7416H134.984V42.1519H135.128C135.38 41.2945 135.803 40.6469 136.396 40.2092C136.99 39.7655 137.673 39.5437 138.447 39.5437C138.639 39.5437 138.845 39.5557 139.067 39.5797C139.289 39.6036 139.484 39.6366 139.652 39.6786V43.0783C139.472 43.0243 139.223 42.9764 138.905 42.9344C138.588 42.8924 138.297 42.8714 138.033 42.8714C137.469 42.8714 136.966 42.9943 136.522 43.2402C136.084 43.48 135.737 43.8158 135.479 44.2475C135.227 44.6792 135.101 45.1769 135.101 45.7405V53.5562H131.27ZM150.492 47.6742V39.7416H154.323V53.5562H150.645V51.0469H150.501C150.189 51.8563 149.67 52.5069 148.945 52.9985C148.225 53.4902 147.347 53.736 146.31 53.736C145.386 53.736 144.574 53.5262 143.872 53.1065C143.171 52.6867 142.622 52.0901 142.226 51.3167C141.837 50.5432 141.639 49.6168 141.633 48.5376V39.7416H145.464V47.854C145.47 48.6695 145.689 49.314 146.121 49.7877C146.553 50.2614 147.131 50.4982 147.857 50.4982C148.318 50.4982 148.75 50.3933 149.152 50.1834C149.553 49.9676 149.877 49.6498 150.123 49.2301C150.375 48.8104 150.498 48.2917 150.492 47.6742ZM168.882 43.6809L165.374 43.8967C165.314 43.5969 165.186 43.3271 164.988 43.0873C164.79 42.8414 164.529 42.6466 164.205 42.5027C163.887 42.3528 163.507 42.2778 163.063 42.2778C162.469 42.2778 161.969 42.4037 161.561 42.6556C161.153 42.9014 160.949 43.2312 160.949 43.6449C160.949 43.9747 161.081 44.2535 161.345 44.4813C161.609 44.7092 162.062 44.892 162.703 45.03L165.204 45.5336C166.547 45.8094 167.548 46.2531 168.208 46.8647C168.867 47.4763 169.197 48.2797 169.197 49.2751C169.197 50.1804 168.93 50.9749 168.396 51.6584C167.869 52.342 167.143 52.8756 166.22 53.2594C165.302 53.6371 164.244 53.826 163.045 53.826C161.216 53.826 159.759 53.4452 158.674 52.6837C157.595 51.9163 156.962 50.873 156.776 49.5539L160.545 49.356C160.659 49.9136 160.934 50.3393 161.372 50.6331C161.81 50.9209 162.37 51.0648 163.054 51.0648C163.726 51.0648 164.265 50.9359 164.673 50.6781C165.087 50.4143 165.296 50.0755 165.302 49.6618C165.296 49.314 165.15 49.0292 164.862 48.8074C164.574 48.5795 164.13 48.4057 163.531 48.2857L161.138 47.8091C159.789 47.5392 158.785 47.0716 158.125 46.406C157.472 45.7405 157.145 44.892 157.145 43.8608C157.145 42.9734 157.385 42.2089 157.865 41.5673C158.35 40.9257 159.031 40.4311 159.906 40.0833C160.788 39.7356 161.819 39.5617 163 39.5617C164.745 39.5617 166.118 39.9304 167.119 40.6679C168.127 41.4054 168.714 42.4097 168.882 43.6809ZM178.957 39.7416V42.6196H170.638V39.7416H178.957ZM172.527 36.4318H176.358V49.311C176.358 49.6648 176.412 49.9406 176.52 50.1385C176.628 50.3303 176.778 50.4653 176.97 50.5432C177.168 50.6211 177.396 50.6601 177.653 50.6601C177.833 50.6601 178.013 50.6451 178.193 50.6152C178.373 50.5792 178.511 50.5522 178.607 50.5342L179.209 53.3853C179.017 53.4452 178.748 53.5142 178.4 53.5921C178.052 53.6761 177.629 53.727 177.132 53.745C176.208 53.781 175.399 53.6581 174.703 53.3763C174.014 53.0945 173.477 52.6568 173.093 52.0632C172.71 51.4696 172.521 50.7201 172.527 49.8147V36.4318ZM190.562 53.5562H186.389L192.747 35.1367H197.766L204.116 53.5562H199.942L195.329 39.3458H195.185L190.562 53.5562ZM190.301 46.3161H200.158V49.356H190.301V46.3161ZM217.681 41.0906C217.555 40.6529 217.378 40.2662 217.15 39.9304C216.922 39.5887 216.643 39.3009 216.314 39.067C215.99 38.8272 215.618 38.6443 215.198 38.5184C214.785 38.3925 214.326 38.3295 213.822 38.3295C212.881 38.3295 212.053 38.5634 211.34 39.031C210.632 39.4987 210.081 40.1793 209.685 41.0726C209.289 41.96 209.091 43.0453 209.091 44.3284C209.091 45.6116 209.286 46.7028 209.676 47.6022C210.066 48.5016 210.617 49.1881 211.331 49.6618C212.044 50.1295 212.887 50.3633 213.858 50.3633C214.74 50.3633 215.492 50.2074 216.116 49.8956C216.745 49.5779 217.225 49.1312 217.555 48.5556C217.89 47.9799 218.058 47.2994 218.058 46.5139L218.85 46.6309H214.101V43.6989H221.809V46.0193C221.809 47.6382 221.467 49.0292 220.783 50.1924C220.1 51.3497 219.159 52.243 217.959 52.8726C216.76 53.4962 215.387 53.808 213.84 53.808C212.113 53.808 210.596 53.4272 209.289 52.6658C207.982 51.8983 206.963 50.81 206.231 49.401C205.506 47.9859 205.143 46.3071 205.143 44.3644C205.143 42.8714 205.359 41.5403 205.791 40.3711C206.228 39.1959 206.84 38.2006 207.625 37.3852C208.411 36.5697 209.325 35.9491 210.369 35.5234C211.412 35.0977 212.542 34.8849 213.759 34.8849C214.803 34.8849 215.774 35.0378 216.673 35.3435C217.573 35.6433 218.37 36.0691 219.066 36.6207C219.767 37.1723 220.34 37.8289 220.783 38.5903C221.227 39.3458 221.512 40.1793 221.638 41.0906H217.681Z" fill="white"/>
<mask id="path-2-inside-1_139_1437" fill="white">
<path d="M58.9556 33.4956C58.8377 40.4231 56.0116 47.029 51.0826 51.8982C46.1536 56.7674 39.5137 59.5127 32.5853 59.546C25.6569 59.5794 18.9909 56.8981 14.0152 52.0765C9.03962 47.255 6.15006 40.6766 5.96551 33.7506L23.8676 33.2736C23.9274 35.5194 24.8644 37.6524 26.4777 39.2158C28.0911 40.7792 30.2526 41.6486 32.4991 41.6378C34.7457 41.627 36.8987 40.7368 38.4969 39.158C40.0951 37.5791 41.0115 35.4371 41.0497 33.1909L58.9556 33.4956Z"/>
</mask>
<path d="M58.9556 33.4956C58.8377 40.4231 56.0116 47.029 51.0826 51.8982C46.1536 56.7674 39.5137 59.5127 32.5853 59.546C25.6569 59.5794 18.9909 56.8981 14.0152 52.0765C9.03962 47.255 6.15006 40.6766 5.96551 33.7506L23.8676 33.2736C23.9274 35.5194 24.8644 37.6524 26.4777 39.2158C28.0911 40.7792 30.2526 41.6486 32.4991 41.6378C34.7457 41.627 36.8987 40.7368 38.4969 39.158C40.0951 37.5791 41.0115 35.4371 41.0497 33.1909L58.9556 33.4956Z" fill="white" stroke="white" stroke-width="1.14208" mask="url(#path-2-inside-1_139_1437)"/>
<mask id="path-3-inside-2_139_1437" fill="white">
<path d="M77.6948 32.0069C77.577 25.0794 74.7508 18.4735 69.8218 13.6043C64.8928 8.73506 58.253 5.98975 51.3245 5.95642C44.3961 5.92308 37.7301 8.60436 32.7545 13.4259C27.7789 18.2475 24.8893 24.8258 24.7048 31.7519L42.6069 32.2289C42.6667 29.9831 43.6036 27.85 45.217 26.2866C46.8304 24.7232 48.9918 23.8538 51.2384 23.8646C53.4849 23.8755 55.6379 24.7656 57.2362 26.3445C58.8344 27.9233 59.7508 30.0653 59.789 32.3116L77.6948 32.0069Z"/>
</mask>
<path d="M77.6948 32.0069C77.577 25.0794 74.7508 18.4735 69.8218 13.6043C64.8928 8.73506 58.253 5.98975 51.3245 5.95642C44.3961 5.92308 37.7301 8.60436 32.7545 13.4259C27.7789 18.2475 24.8893 24.8258 24.7048 31.7519L42.6069 32.2289C42.6667 29.9831 43.6036 27.85 45.217 26.2866C46.8304 24.7232 48.9918 23.8538 51.2384 23.8646C53.4849 23.8755 55.6379 24.7656 57.2362 26.3445C58.8344 27.9233 59.7508 30.0653 59.789 32.3116L77.6948 32.0069Z" fill="white" stroke="white" stroke-width="1.14208" mask="url(#path-3-inside-2_139_1437)"/>
</svg>
