<svg width="29" height="29" viewBox="0 0 29 29" fill="none" xmlns="http://www.w3.org/2000/svg">
<g id="add_home">
<mask id="mask0_79_306" style="mask-type:alpha" maskUnits="userSpaceOnUse" x="0" y="0" width="29" height="29">
<rect id="Bounding box" x="0.62915" y="0.598633" width="28.369" height="28.369" fill="#D9D9D9"/>
</mask>
<g mask="url(#mask0_79_306)">
<path id="add_home_2" d="M21.315 23.0575H22.497V20.1024H25.4521V18.9203H22.497V15.9652H21.315V18.9203H18.3599V20.1024H21.315V23.0575ZM21.906 25.4216C20.2708 25.4216 18.877 24.8453 17.7245 23.6928C16.572 22.5403 15.9958 21.1465 15.9958 19.5114C15.9958 17.8762 16.572 16.4824 17.7245 15.3299C18.877 14.1774 20.2708 13.6012 21.906 13.6012C23.5411 13.6012 24.935 14.1774 26.0875 15.3299C27.2399 16.4824 27.8162 17.8762 27.8162 19.5114C27.8162 21.1465 27.2399 22.5403 26.0875 23.6928C24.935 24.8453 23.5411 25.4216 21.906 25.4216ZM5.35742 23.0575V8.873L14.8137 1.78076L24.2701 8.873V11.5917C23.8761 11.4735 23.482 11.3848 23.088 11.3257C22.694 11.2666 22.3 11.2371 21.906 11.2371C19.601 11.2371 17.6457 12.0399 16.0401 13.6455C14.4345 15.2511 13.6317 17.2064 13.6317 19.5114C13.6317 20.1418 13.6957 20.7525 13.8238 21.3435C13.9518 21.9346 14.1538 22.5059 14.4296 23.0575H5.35742Z" fill="#FFFEFE"/>
</g>
</g>
</svg>
