<svg width="29" height="29" viewBox="0 0 29 29" fill="none" xmlns="http://www.w3.org/2000/svg">
<g id="feed">
<mask id="mask0_79_309" style="mask-type:alpha" maskUnits="userSpaceOnUse" x="0" y="0" width="29" height="29">
<rect id="Bounding box" x="0.62915" y="0.0102539" width="28.369" height="28.369" fill="#D9D9D9"/>
</mask>
<g mask="url(#mask0_79_309)">
<path id="feed_2" d="M6.53937 24.8331C5.88925 24.8331 5.33271 24.6016 4.86974 24.1387C4.40678 23.6757 4.17529 23.1192 4.17529 22.469V5.92048C4.17529 5.27035 4.40678 4.71381 4.86974 4.25085C5.33271 3.78788 5.88925 3.5564 6.53937 3.5564H19.5418L25.452 9.4666V22.469C25.452 23.1192 25.2205 23.6757 24.7576 24.1387C24.2946 24.6016 23.7381 24.8331 23.0879 24.8331H6.53937ZM8.90345 20.105H20.7239V17.7409H8.90345V20.105ZM8.90345 15.3768H20.7239V13.0127H8.90345V15.3768ZM18.3598 10.6486H23.0879L18.3598 5.92048V10.6486ZM8.90345 10.6486H14.8137V8.28456H8.90345V10.6486Z" fill="#FFFEFE"/>
</g>
</g>
</svg>
