<svg width="29" height="29" viewBox="0 0 29 29" fill="none" xmlns="http://www.w3.org/2000/svg">
<g id="help">
<mask id="mask0_79_312" style="mask-type:alpha" maskUnits="userSpaceOnUse" x="0" y="0" width="29" height="29">
<rect id="Bounding box" x="0.62915" y="0.20459" width="28.369" height="28.369" fill="#D9D9D9"/>
</mask>
<g mask="url(#mask0_79_312)">
<path id="help_2" d="M14.7545 21.4812C15.1682 21.4812 15.5179 21.3384 15.8035 21.0528C16.0892 20.7671 16.232 20.4174 16.232 20.0037C16.232 19.59 16.0892 19.2403 15.8035 18.9546C15.5179 18.669 15.1682 18.5261 14.7545 18.5261C14.3408 18.5261 13.9911 18.669 13.7054 18.9546C13.4197 19.2403 13.2769 19.59 13.2769 20.0037C13.2769 20.4174 13.4197 20.7671 13.7054 21.0528C13.9911 21.3384 14.3408 21.4812 14.7545 21.4812ZM13.6906 16.9304H15.8774C15.8774 16.2803 15.9513 15.7681 16.099 15.3937C16.2468 15.0194 16.6654 14.5072 17.355 13.8571C17.8672 13.3449 18.271 12.8573 18.5665 12.3943C18.8621 11.9313 19.0098 11.3748 19.0098 10.7247C19.0098 9.62144 18.6059 8.77432 17.7982 8.1833C16.9905 7.59228 16.035 7.29676 14.9318 7.29676C13.8088 7.29676 12.8977 7.59228 12.1983 8.1833C11.4989 8.77432 11.0113 9.48354 10.7355 10.311L12.6859 11.0793C12.7844 10.7247 13.006 10.3405 13.3508 9.9268C13.6956 9.51309 14.2225 9.30623 14.9318 9.30623C15.5622 9.30623 16.035 9.47861 16.3502 9.82338C16.6654 10.1681 16.823 10.5474 16.823 10.9611C16.823 11.3551 16.7048 11.7245 16.4684 12.0693C16.232 12.414 15.9365 12.7342 15.5819 13.0297C14.7151 13.798 14.1831 14.3792 13.9861 14.7732C13.7891 15.1672 13.6906 15.8863 13.6906 16.9304ZM14.8136 26.2094C13.1784 26.2094 11.6418 25.8991 10.2036 25.2786C8.76546 24.658 7.51447 23.8158 6.45063 22.7519C5.3868 21.6881 4.54459 20.4371 3.92402 18.999C3.30345 17.5608 2.99316 16.0242 2.99316 14.389C2.99316 12.7539 3.30345 11.2172 3.92402 9.77905C4.54459 8.3409 5.3868 7.08991 6.45063 6.02607C7.51447 4.96223 8.76546 4.12003 10.2036 3.49946C11.6418 2.87889 13.1784 2.5686 14.8136 2.5686C16.4487 2.5686 17.9854 2.87889 19.4235 3.49946C20.8617 4.12003 22.1127 4.96223 23.1765 6.02607C24.2403 7.08991 25.0825 8.3409 25.7031 9.77905C26.3237 11.2172 26.634 12.7539 26.634 14.389C26.634 16.0242 26.3237 17.5608 25.7031 18.999C25.0825 20.4371 24.2403 21.6881 23.1765 22.7519C22.1127 23.8158 20.8617 24.658 19.4235 25.2786C17.9854 25.8991 16.4487 26.2094 14.8136 26.2094Z" fill="#FFFEFE"/>
</g>
</g>
</svg>
