<svg width="24" height="25" viewBox="0 0 24 25" fill="none" xmlns="http://www.w3.org/2000/svg">
<g id="account_balance_wallet">
<mask id="mask0_79_254" style="mask-type:alpha" maskUnits="userSpaceOnUse" x="0" y="0" width="24" height="25">
<rect id="Bounding box" x="0.158691" y="0.695068" width="23.6408" height="23.6408" fill="#D9D9D9"/>
</mask>
<g mask="url(#mask0_79_254)">
<path id="account_balance_wallet_2" d="M15.9192 13.993C16.3461 13.993 16.699 13.8535 16.9781 13.5744C17.2572 13.2953 17.3968 12.9423 17.3968 12.5154C17.3968 12.0886 17.2572 11.7356 16.9781 11.4565C16.699 11.1774 16.3461 11.0379 15.9192 11.0379C15.4924 11.0379 15.1394 11.1774 14.8603 11.4565C14.5812 11.7356 14.4417 12.0886 14.4417 12.5154C14.4417 12.9423 14.5812 13.2953 14.8603 13.5744C15.1394 13.8535 15.4924 13.993 15.9192 13.993ZM12.9641 17.4406C12.4223 17.4406 11.9586 17.2477 11.5727 16.8619C11.1869 16.4761 10.994 16.0123 10.994 15.4705V9.56035C10.994 9.01858 11.1869 8.55479 11.5727 8.16899C11.9586 7.78318 12.4223 7.59028 12.9641 7.59028H19.8593C20.4011 7.59028 20.8649 7.78318 21.2507 8.16899C21.6365 8.55479 21.8294 9.01858 21.8294 9.56035V15.4705C21.8294 16.0123 21.6365 16.4761 21.2507 16.8619C20.8649 17.2477 20.4011 17.4406 19.8593 17.4406H12.9641ZM5.08384 21.3808C4.54207 21.3808 4.07828 21.1878 3.69248 20.802C3.30667 20.4162 3.11377 19.9525 3.11377 19.4107V5.62021C3.11377 5.07845 3.30667 4.61466 3.69248 4.22885C4.07828 3.84305 4.54207 3.65015 5.08384 3.65015H18.8743C19.4161 3.65015 19.8799 3.84305 20.2657 4.22885C20.6515 4.61466 20.8444 5.07845 20.8444 5.62021H12.9641C11.7985 5.62021 10.8504 5.9855 10.1198 6.71606C9.38925 7.44663 9.02397 8.39472 9.02397 9.56035V15.4705C9.02397 16.6362 9.38925 17.5843 10.1198 18.3148C10.8504 19.0454 11.7985 19.4107 12.9641 19.4107H20.8444C20.8444 19.9525 20.6515 20.4162 20.2657 20.802C19.8799 21.1878 19.4161 21.3808 18.8743 21.3808H5.08384Z" fill="black"/>
</g>
</g>
</svg>
