<svg width="44" height="44" viewBox="0 0 44 44" fill="none" xmlns="http://www.w3.org/2000/svg">
<g id="Group 55">
<g id="notifications">
<mask id="mask0_79_257" style="mask-type:alpha" maskUnits="userSpaceOnUse" x="0" y="0" width="44" height="44">
<rect id="Bounding box" x="0.253906" y="0.18457" width="43.4991" height="43.4991" fill="#D9D9D9"/>
</mask>
<g mask="url(#mask0_79_257)">
<path id="notifications_2" d="M7.50391 34.6214V30.9965H11.1288V18.3093C11.1288 15.802 11.884 13.5742 13.3944 11.6258C14.9048 9.67742 16.8683 8.40114 19.2849 7.79699V6.52826C19.2849 5.77307 19.5492 5.13116 20.0779 4.60252C20.6065 4.07389 21.2484 3.80957 22.0036 3.80957C22.7588 3.80957 23.4007 4.07389 23.9293 4.60252C24.458 5.13116 24.7223 5.77307 24.7223 6.52826V7.79699C27.1389 8.40114 29.1024 9.67742 30.6128 11.6258C32.1232 13.5742 32.8784 15.802 32.8784 18.3093V30.9965H36.5033V34.6214H7.50391ZM22.0036 40.0588C21.0067 40.0588 20.1534 39.7039 19.4435 38.994C18.7336 38.2841 18.3787 37.4307 18.3787 36.4339H25.6285C25.6285 37.4307 25.2736 38.2841 24.5637 38.994C23.8538 39.7039 23.0005 40.0588 22.0036 40.0588Z" fill="black"/>
</g>
</g>
<circle id="Ellipse 1" cx="35.0533" cy="8.88439" r="8.69982" fill="#EB1C2E"/>
</g>
</svg>
